# xmcd
#
# Track frame offsets: 
#        150
#        22837
#        36402
#        51055
#        68205
#        87082
#        103740
#        125682
#        139672
#        152572
#        174317
#        200087
#        228522
#        243655
#        279852
#        300557
#
# Disc length: 4441 seconds
#
# Revision: 14
# Processed by: cddbd v1.5.2PL0 Copyright (c) Steve Scherf et al.
# Submitted via: ExactAudioCopyFreeDBPlugin 1.0
#
DISCID=d6115710
DTITLE=Young, Neil and Crazy Horse - Live Rust
DYEAR=1979
DGENRE=West Coast
TTITLE0=Sugar Mountain
TTITLE1=I Am A Child
TTITLE2=Comes A Time
TTITLE3=After The Gold Rush
TTITLE4=My My, Hey Hey (Out Of The Blue)
TTITLE5=When You Dance I Can Really Love
TTITLE6=The Loner
TTITLE7=The Needle And The Damage Done
TTITLE8=Lotta Love
TTITLE9=Sedan Delivery
TTITLE10=Powderfinger
TTITLE11=Cortez The Killer
TTITLE12=Cinnamon Girl
TTITLE13=Like A Hurricane
TTITLE14=Hey Hey, My My (Into The Black)
TTITLE15=Tonight's The Night
EXTD=
EXTT0=
EXTT1=
EXTT2=
EXTT3=
EXTT4=
EXTT5=
EXTT6=
EXTT7=
EXTT8=
EXTT9=
EXTT10=
EXTT11=
EXTT12=
EXTT13=
EXTT14=
EXTT15=
PLAYORDER=
